<?xml version="1.0" encoding="utf-8"?>
<!-- Generator: Adobe Illustrator 25.3.0, SVG Export Plug-In . SVG Version: 6.00 Build 0)  -->
<svg version="1.1" id="Layer_1" xmlns="http://www.w3.org/2000/svg" xmlns:xlink="http://www.w3.org/1999/xlink" x="0px" y="0px"
	 viewBox="0 0 763 724" style="enable-background:new 0 0 763 724;" xml:space="preserve">
<g>
	<path d="M372.84,352.63c0,84.19,0.02,168.37-0.01,252.56c-0.01,16.9-12.25,28.73-28.08,27.34c-7.22-0.64-12.73-4.41-17.69-9.39
		c-27.53-27.63-55.11-55.2-82.68-82.79c-22.27-22.28-44.57-44.52-66.75-66.89c-2.56-2.58-5.15-3.6-8.77-3.59
		c-36.34,0.12-72.67,0.09-109.01,0.07c-19.91-0.01-29.73-9.88-29.73-29.83c0-58.68-0.01-117.36,0-176.04
		c0-19.07,10.29-29.36,29.31-29.37c36.34-0.01,72.67-0.1,109.01,0.12c4.8,0.03,7.99-1.53,11.26-4.83
		c49.38-49.85,98.83-99.64,148.37-149.34c13.81-13.86,35.36-10.2,42.53,7.25c1.65,4.02,2.12,8.76,2.13,13.17
		c0.12,83.85,0.09,167.7,0.09,251.56C372.8,352.63,372.82,352.63,372.84,352.63z M321.35,161.21c-0.56-0.34-1.13-0.67-1.69-1.01
		c-1.18,1.61-2.19,3.39-3.58,4.79c-36.61,36.91-73.33,73.7-109.83,110.72c-6.91,7-14.64,10.24-24.47,10.16
		c-31.66-0.26-63.32-0.02-94.98-0.19c-4.26-0.02-5.7,0.91-5.68,5.47c0.18,40.66,0.18,81.33,0,121.99c-0.02,4.6,1.23,5.92,5.84,5.89
		c30.83-0.19,61.66,0.16,92.48-0.23c10.95-0.14,19.4,3.4,27.1,11.19c36.53,36.99,73.38,73.67,110.12,110.45
		c1.33,1.33,2.73,2.57,4.69,4.4C321.35,416.25,321.35,288.73,321.35,161.21z"/>
	<path d="M733.62,351.76c-0.95,138.5-84.58,265.66-210.81,319.32c-16.7,7.1-33.31-1.68-36.4-19.23
		c-1.93-11.01,4.15-22.13,15.27-27.09c21.69-9.68,42.35-21.14,61.19-35.65c65.74-50.64,105.22-116.91,116.03-199.27
		C695.98,259.7,626.13,135.1,506.86,80.83c-5.77-2.62-11.71-6.1-15.89-10.7c-7.64-8.41-7.21-21.41-0.46-30.57
		c6.81-9.24,19.19-13.31,29.89-8.24c16.53,7.83,33.35,15.51,48.67,25.38c90.09,58.07,143.76,140.2,159.94,246.35
		C731.46,319.15,732.12,335.52,733.62,351.76z"/>
	<path d="M622.77,349.75c-0.23,96.9-57.56,184.07-143.54,220.44c-12.42,5.25-25.85,1.41-32.54-9.31
		c-6.62-10.6-4.76-24.55,4.79-32.67c2.98-2.54,6.71-4.3,10.3-5.99c44.44-20.88,76.39-53.79,95.64-99
		c32.39-76.07,7.85-168.93-57.82-219.13c-13.05-9.97-27.12-18.06-42.01-24.94c-13.21-6.1-18.65-19.57-13.74-32.44
		c5.32-13.94,20.24-20.09,34.64-13.95c21.91,9.34,42.07,21.67,60.07,37.28c48.52,42.06,76.28,95.06,83.01,158.98
		c0.23,2.15,0.39,4.32,0.51,6.48C622.36,341,622.61,346.49,622.77,349.75z"/>
	<path d="M509.68,358.61c-2.51,45.34-26.34,84.06-73.99,107.25c-13.98,6.81-28.8,1.6-35.08-11.82c-6.27-13.4-0.63-27.7,13.58-34.45
		c30.09-14.29,47.02-42.56,43.76-75.15c-2.83-28.3-17.86-48.57-43.56-60.78c-11.4-5.41-17.73-14.86-16.89-25.79
		c1.36-17.67,19.34-28.7,35.81-21.64c28.38,12.16,49.55,32.15,63.29,59.79C505.4,313.7,509.66,332.72,509.68,358.61z"/>
</g>
</svg>
